<?xml version="1.0" encoding="utf-8"?>
<!-- Generator: Adobe Illustrator 15.1.0, SVG Export Plug-In . SVG Version: 6.00 Build 0)  -->
<!DOCTYPE svg PUBLIC "-//W3C//DTD SVG 1.1//EN" "http://www.w3.org/Graphics/SVG/1.1/DTD/svg11.dtd">
<svg version="1.1" id="Layer_1" xmlns="http://www.w3.org/2000/svg" xmlns:xlink="http://www.w3.org/1999/xlink" x="0px" y="0px"
	 width="595.28px" height="841.89px" viewBox="0 0 595.28 841.89" enable-background="new 0 0 595.28 841.89" xml:space="preserve">
<g>
	<path fill="#009BDF" d="M218.45,406.02c-9.646,0-17.467,7.82-17.467,17.468c0,9.646,7.82,17.466,17.467,17.466
		s17.467-7.82,17.467-17.466C235.917,413.84,228.097,406.02,218.45,406.02z M218.45,439.219c-8.688,0-15.732-7.044-15.732-15.731
		c0-8.689,7.044-15.733,15.732-15.733c8.689,0,15.732,7.044,15.732,15.733C234.183,432.175,227.14,439.219,218.45,439.219z"/>
	<g>
		<path fill="#009BDF" d="M222.022,401.855c0,0.954-0.957,1.735-2.126,1.735h-2.893c-1.169,0-2.126-0.781-2.126-1.735
			s0.957-1.735,2.126-1.735h2.893C221.066,400.12,222.022,400.901,222.022,401.855z"/>
	</g>
	<rect x="216.715" y="401.534" fill="#009BDF" width="3.47" height="5.231"/>
	<path d="M254.346,415.763l-1.11,5.18h15.54c1.233,0,2.245,0.383,3.034,1.147c0.789,0.765,1.184,1.727,1.184,2.886
		c0,0.37-0.05,0.753-0.148,1.146l-1.11,5.181c-0.296,1.455-1.054,2.683-2.275,3.682c-1.221,0.999-2.547,1.498-3.978,1.498h-15.54
		c-1.233,0-2.245-0.382-3.034-1.147c-0.79-0.764-1.184-1.738-1.184-2.923c0-0.37,0.037-0.739,0.111-1.109h20.72l1.11-5.181h-15.54
		c-1.234,0-2.238-0.382-3.016-1.146c-0.777-0.765-1.166-1.751-1.166-2.96c0-0.346,0.037-0.703,0.111-1.073l1.11-5.18
		c0.32-1.431,1.091-2.651,2.313-3.663s2.547-1.518,3.978-1.518h20.72v0.037c-0.296,1.445-1.061,2.664-2.294,3.656
		c-1.233,0.991-2.565,1.487-3.996,1.487H254.346z"/>
	<path d="M305.425,411.748c0.776,0.777,1.165,1.758,1.165,2.941c0,0.346-0.037,0.703-0.11,1.073l-3.33,15.54
		c-0.297,1.431-1.055,2.651-2.276,3.663c-1.221,1.012-2.547,1.517-3.977,1.517h-15.54c-1.234,0-2.245-0.395-3.034-1.184
		c-0.79-0.789-1.185-1.776-1.185-2.96c0-0.346,0.037-0.69,0.111-1.036l1.11-5.181c0.345-1.405,1.128-2.62,2.35-3.645
		c1.221-1.022,2.534-1.535,3.94-1.535h15.54l1.109-5.18h-15.54c-1.233,0-2.238-0.389-3.016-1.166
		c-0.776-0.776-1.165-1.744-1.165-2.904c0-0.37,0.037-0.74,0.111-1.11h20.72C303.643,410.582,304.647,410.971,305.425,411.748z
		 M299.079,426.122h-15.54l-1.11,5.181h15.54L299.079,426.122z"/>
	<path d="M363.734,411.748c0.776,0.777,1.165,1.758,1.165,2.941c0,0.346-0.037,0.703-0.11,1.073l-3.33,15.54
		c-0.297,1.431-1.055,2.651-2.276,3.663c-1.221,1.012-2.547,1.517-3.977,1.517h-15.54c-1.234,0-2.245-0.395-3.034-1.184
		c-0.79-0.789-1.185-1.776-1.185-2.96c0-0.346,0.037-0.69,0.111-1.036l1.11-5.181c0.345-1.405,1.128-2.62,2.35-3.645
		c1.221-1.022,2.534-1.535,3.94-1.535h15.54l1.109-5.18h-15.54c-1.233,0-2.238-0.389-3.016-1.166
		c-0.776-0.776-1.165-1.744-1.165-2.904c0-0.37,0.037-0.74,0.111-1.11h20.72C361.952,410.582,362.957,410.971,363.734,411.748z
		 M357.389,426.122h-15.54l-1.11,5.181h15.54L357.389,426.122z"/>
	<g>
		<path d="M392.66,411.729c-0.777-0.765-1.782-1.147-3.016-1.147h-12.535c-1.431,0-2.763,0.506-3.996,1.518
			s-1.998,2.232-2.294,3.663l-2.22,10.359l-2.184,10.323c1.431,0,2.864-0.182,4.085-1.188c1.222-1.008,1.872-2.548,2.168-3.974
			l1.11-5.162l2.22-10.359h12.535l-1.109,5.18c1.43,0,2.756-0.505,3.978-1.517c1.221-1.012,1.991-2.232,2.313-3.663
			c0.073-0.37,0.11-0.74,0.11-1.11C393.825,413.469,393.437,412.494,392.66,411.729z"/>
	</g>
	<path d="M310.078,410.796c-0.074,0.346-0.111,0.69-0.111,1.036c0,1.184,0.395,2.171,1.184,2.96s1.801,1.184,3.035,1.184h5.446
		l-4.229,19.817c1.123,0.506,2.2,0.396,3.227,0.006c1.027-0.392,1.785-0.957,2.27-2.037c0.143-0.314,0.256-0.656,0.34-1.025
		l3.573-16.76h4.914c1.43,0,2.756-0.505,3.977-1.517c1.223-1.012,1.98-2.232,2.277-3.663H310.078z"/>
	<path fill="#009BDF" d="M219.357,409.618V423.5h-0.003c-0.008,0.494-0.408,0.894-0.904,0.894s-0.896-0.399-0.904-0.894h-0.003
		v-13.882c-7.261,0.469-13.007,6.489-13.007,13.869c0,7.683,6.229,13.914,13.914,13.914c7.685,0,13.914-6.231,13.914-13.914
		C232.364,416.107,226.617,410.087,219.357,409.618z"/>
</g>
</svg>
