<?xml version="1.0" encoding="utf-8"?>
<!-- Generator: Adobe Illustrator 16.0.0, SVG Export Plug-In . SVG Version: 6.00 Build 0)  -->
<!DOCTYPE svg PUBLIC "-//W3C//DTD SVG 1.1//EN" "http://www.w3.org/Graphics/SVG/1.1/DTD/svg11.dtd">
<svg version="1.1" xmlns="http://www.w3.org/2000/svg" xmlns:xlink="http://www.w3.org/1999/xlink" x="0px" y="0px"
	 width="566.928711px" height="226.771484px" viewBox="0 0 566.928711 226.771484"
	 enable-background="new 0 0 566.928711 226.771484" xml:space="preserve">
<g id="stopwatch">
	<g id="Layer_2">
		<g>
			<path fill="#009BDF" d="M165.352539,63.320313l6.368652-7.589844c3.71875,0.926758,7.808594-0.245117,10.439453-3.378906
				c3.674316-4.379395,3.104004-10.910156-1.275879-14.584473c-4.380371-3.675293-10.909668-3.103516-14.584961,1.275879
				c-2.629883,3.134766-3.07373,7.364258-1.514648,10.866211l-6.359863,7.579102
				c-13.476563-10.180176-29.99707-16.542969-47.959473-17.461914v-9.88623c3.444824-1.681152,5.824219-5.208008,5.824219-9.299316
				c0-5.716797-4.634766-10.351074-10.351074-10.351074c-5.716797,0-10.351563,4.634277-10.351563,10.351074
				c0,4.091309,2.378906,7.617676,5.82373,9.298828v9.886719c-17.962402,0.918945-34.48291,7.281738-47.959473,17.461914
				l-6.359375-7.577637c1.559082-3.502441,1.115234-7.733887-1.515137-10.867676
				c-3.674805-4.379395-10.204102-4.951172-14.583984-1.275879c-4.379395,3.674316-4.950684,10.205078-1.275391,14.584473
				c2.630371,3.133301,6.718262,4.305176,10.437012,3.378906l6.368652,7.59082
				c-17.070801,15.914063-27.758789,38.587402-27.758789,63.767578c0,48.138184,39.029297,87.16748,87.173828,87.16748
				s87.173828-39.029297,87.173828-87.16748C193.112305,101.907715,182.423828,79.235352,165.352539,63.320313z
				 M105.938477,205.601563c-43.363281,0-78.518066-35.154785-78.518066-78.512695
				c0-43.366211,35.154785-78.522461,78.518066-78.522461c43.365723,0,78.517578,35.15625,78.517578,78.522461
				C184.456055,170.446777,149.304199,205.601563,105.938477,205.601563z"/>
			<circle fill="#009BDF" cx="105.938477" cy="127.083008" r="69.441895"/>
		</g>
	</g>
</g>
<g id="font">
	<g>
		<g>
			<path d="M258.55127,88.841309c2.60498,2.606445,3.907227,5.893066,3.907227,9.863281
				c0,1.157715-0.124512,2.355469-0.371582,3.595703l-11.162109,52.103027c-0.997559,4.795898-3.536133,8.887695-7.634766,12.28125
				c-4.09082,3.390137-8.539063,5.083984-13.332031,5.083984h-52.099609c-4.140137,0-7.527344-1.323242-10.174316-3.968262
				c-2.646484-2.64502-3.970215-5.956055-3.970215-9.92334c0-1.160156,0.123535-2.315918,0.375-3.473633l3.721191-17.369629
				c1.154785-4.712891,3.780762-8.784668,7.877441-12.220215c4.09375-3.425781,8.495605-5.145508,13.210449-5.145508h52.101074
				l3.719727-17.367676h-52.099609c-4.137207,0-7.504395-1.302734-10.112305-3.908203
				c-2.604004-2.603516-3.905273-5.847168-3.905273-9.737305c0-1.240723,0.123047-2.480957,0.37207-3.722656h69.467773
				C252.576172,84.932129,255.945313,86.235352,258.55127,88.841309z M237.276367,137.033691h-52.100586l-3.722656,17.369629
				h52.100586L237.276367,137.033691z"/>
			<path d="M454.054688,88.841309c2.603516,2.606445,3.901367,5.893066,3.901367,9.863281
				c0,1.157715-0.123047,2.355469-0.367188,3.595703l-11.165039,52.103027c-0.99707,4.795898-3.537109,8.887695-7.631836,12.28125
				c-4.091797,3.390137-8.541992,5.083984-13.331055,5.083984h-52.103516c-4.137695,0-7.524414-1.323242-10.174805-3.968262
				c-2.644531-2.64502-3.96875-5.956055-3.96875-9.92334c0-1.160156,0.124023-2.315918,0.374023-3.473633l3.72168-17.369629
				c1.15332-4.712891,3.783203-8.784668,7.879883-12.220215c4.089844-3.425781,8.494141-5.145508,13.208008-5.145508h52.100586
				l3.71875-17.367676h-52.09668c-4.137695,0-7.507813-1.302734-10.116211-3.908203
				c-2.600586-2.603516-3.901367-5.847168-3.901367-9.737305c0-1.240723,0.124023-2.480957,0.37207-3.722656h69.464844
				C448.078125,84.932129,451.445313,86.235352,454.054688,88.841309z M432.777344,137.033691h-52.101563l-3.723633,17.369629
				h52.102539L432.777344,137.033691z"/>
			<g>
				<path d="M551.032227,88.779297c-2.608398-2.563965-5.975586-3.847168-10.111328-3.847168h-42.027344
					c-4.793945,0-9.260742,1.696289-13.395508,5.087402c-4.136719,3.39209-6.700195,7.484863-7.692383,12.280762
					l-7.442383,34.733398l-7.321289,34.61084c4.797852,0,9.603516-0.609863,13.697266-3.981445
					c4.094727-3.379395,6.27832-8.54248,7.265625-13.323242l3.726563-17.306152l7.439453-34.733398h42.02832l-3.720703,17.367676
					c4.793945,0,9.241211-1.694336,13.335938-5.084961c4.09375-3.391602,6.676758-7.485352,7.754883-12.282715
					c0.244141-1.240234,0.368164-2.480957,0.368164-3.72168C554.9375,94.610352,553.633789,91.342773,551.032227,88.779297z"/>
			</g>
			<path d="M274.151855,85.651367c-0.246094,1.158691-0.373047,2.314941-0.373047,3.473633
				c0,3.967773,1.322754,7.27832,3.969727,9.923828c2.644043,2.645996,6.038574,3.968262,10.174805,3.968262h18.260254
				l-14.179199,66.44043c3.765137,1.695313,7.376465,1.32959,10.817871,0.018555
				c3.443359-1.312988,5.984375-3.207031,7.607422-6.829102c0.478516-1.053711,0.857422-2.199219,1.140625-3.437988
				l11.977539-56.191895h16.481445c4.795898,0,9.240234-1.692383,13.334961-5.084473
				c4.100586-3.392578,6.635742-7.485352,7.633789-12.28125H274.151855z"/>
		</g>
		<path d="M95.402344,101.875c0.012695,0,0.023926-0.003906,0.037598-0.003906l56.371582-0.027344
			c0.246582-1.251953,0.372559-2.5,0.372559-3.751465c0-4.006836-1.330078-7.303223-4.00293-9.885254
			c-2.668457-2.590332-6.089844-3.881836-10.258789-3.881836l-21.247559,0.02832H97.684082h-6.47998
			c-4.838379,0-9.320801,1.710449-13.452637,5.132324c-4.131348,3.421387-6.737793,7.550781-7.820801,12.38916l-3.755371,17.517578
			c-0.250977,1.251465-0.376953,2.459961-0.376953,3.629883c0,4.089355,1.314941,7.424316,3.943359,10.010742
			c2.629883,2.585938,6.025391,3.877441,10.200195,3.877441h48.299316l-3.752441,17.521484H58.661133
			c-0.248047,1.251465-0.373535,2.5-0.373535,3.751953c0,4.006348,1.331055,7.301758,4.003418,9.884766
			c2.667969,2.589355,6.089844,3.880859,10.257813,3.880859h48.314453c4.834961,0,9.319824-1.6875,13.44873-5.066895
			c4.128418-3.378418,6.698242-7.529297,7.695313-12.450684l3.757813-17.521484
			c0.330566-1.331055,0.496094-2.625977,0.496094-3.877441c0-3.92041-1.333496-7.173828-4.002441-9.759766
			c-2.668945-2.586426-6.09082-3.880859-10.259277-3.880859H83.693359L87.45166,101.875H95.402344z"/>
	</g>
	<g>
	</g>
	<g>
	</g>
	<g>
	</g>
	<g>
	</g>
	<g>
	</g>
	<g>
	</g>
</g>
</svg>
