<?xml version="1.0" encoding="utf-8"?>
<!-- Generator: Adobe Illustrator 16.0.0, SVG Export Plug-In . SVG Version: 6.00 Build 0)  -->
<!DOCTYPE svg PUBLIC "-//W3C//DTD SVG 1.1//EN" "http://www.w3.org/Graphics/SVG/1.1/DTD/svg11.dtd">
<svg version="1.1" id="Layer_1" xmlns="http://www.w3.org/2000/svg" xmlns:xlink="http://www.w3.org/1999/xlink" x="0px" y="0px"
	 width="207px" height="56px" viewBox="0 0 207 56" enable-background="new 0 0 207 56" xml:space="preserve">
<g>
	<path fill="#009BDF" d="M22.45,14.02c-9.646,0-17.467,7.82-17.467,17.468c0,9.646,7.82,17.466,17.467,17.466
		s17.467-7.82,17.467-17.466C39.917,21.84,32.097,14.02,22.45,14.02z M22.45,47.219c-8.688,0-15.732-7.044-15.732-15.731
		c0-8.689,7.044-15.733,15.732-15.733c8.689,0,15.732,7.044,15.732,15.733C38.183,40.175,31.14,47.219,22.45,47.219z"/>
	<g>
		<path fill="#009BDF" d="M26.022,9.855c0,0.954-0.957,1.735-2.126,1.735h-2.893c-1.169,0-2.126-0.781-2.126-1.735
			s0.957-1.735,2.126-1.735h2.893C25.066,8.12,26.022,8.901,26.022,9.855z"/>
	</g>
	<rect x="20.715" y="9.534" fill="#009BDF" width="3.47" height="5.231"/>
	<path fill="#009BDF" d="M23.357,17.618V31.5h-0.003c-0.008,0.494-0.408,0.894-0.904,0.894s-0.896-0.399-0.904-0.894h-0.003V17.618
		c-7.261,0.469-13.007,6.489-13.007,13.869c0,7.683,6.229,13.914,13.914,13.914c7.685,0,13.914-6.231,13.914-13.914
		C36.364,24.107,30.617,18.087,23.357,17.618z"/>
	<path fill="#FFFFFF" d="M58.346,23.763l-1.11,5.18h15.54c1.233,0,2.245,0.383,3.034,1.147c0.789,0.765,1.184,1.727,1.184,2.886
		c0,0.37-0.05,0.753-0.148,1.146l-1.11,5.181c-0.296,1.455-1.054,2.683-2.275,3.682c-1.221,0.999-2.547,1.498-3.978,1.498h-15.54
		c-1.233,0-2.245-0.382-3.034-1.147c-0.79-0.764-1.184-1.738-1.184-2.923c0-0.37,0.037-0.739,0.111-1.109h20.72l1.11-5.181h-15.54
		c-1.234,0-2.238-0.382-3.016-1.146c-0.777-0.765-1.166-1.751-1.166-2.96c0-0.346,0.037-0.703,0.111-1.073l1.11-5.18
		c0.32-1.431,1.091-2.651,2.313-3.663s2.547-1.518,3.978-1.518h20.72v0.037c-0.296,1.445-1.061,2.664-2.294,3.656
		c-1.233,0.991-2.565,1.487-3.996,1.487H58.346z"/>
	<path fill="#FFFFFF" d="M109.425,19.748c0.776,0.777,1.165,1.758,1.165,2.941c0,0.346-0.037,0.703-0.11,1.073l-3.33,15.54
		c-0.297,1.431-1.055,2.651-2.276,3.663c-1.221,1.012-2.547,1.517-3.977,1.517h-15.54c-1.234,0-2.245-0.395-3.034-1.184
		c-0.79-0.789-1.185-1.776-1.185-2.96c0-0.346,0.037-0.69,0.111-1.036l1.11-5.181c0.345-1.405,1.128-2.62,2.35-3.645
		c1.221-1.022,2.534-1.535,3.94-1.535h15.54l1.109-5.18h-15.54c-1.233,0-2.238-0.389-3.016-1.166
		c-0.776-0.776-1.165-1.744-1.165-2.904c0-0.37,0.037-0.74,0.111-1.11h20.72C107.643,18.582,108.647,18.971,109.425,19.748z
		 M103.079,34.122h-15.54l-1.11,5.181h15.54L103.079,34.122z"/>
	<path fill="#FFFFFF" d="M167.734,19.748c0.776,0.777,1.165,1.758,1.165,2.941c0,0.346-0.037,0.703-0.11,1.073l-3.33,15.54
		c-0.297,1.431-1.055,2.651-2.276,3.663c-1.221,1.012-2.547,1.517-3.977,1.517h-15.54c-1.234,0-2.245-0.395-3.034-1.184
		c-0.79-0.789-1.185-1.776-1.185-2.96c0-0.346,0.037-0.69,0.111-1.036l1.11-5.181c0.345-1.405,1.128-2.62,2.35-3.645
		c1.221-1.022,2.534-1.535,3.94-1.535h15.54l1.109-5.18h-15.54c-1.233,0-2.238-0.389-3.016-1.166
		c-0.776-0.776-1.165-1.744-1.165-2.904c0-0.37,0.037-0.74,0.111-1.11h20.72C165.952,18.582,166.957,18.971,167.734,19.748z
		 M161.389,34.122h-15.54l-1.11,5.181h15.54L161.389,34.122z"/>
	<g>
		<path fill="#FFFFFF" d="M196.66,19.729c-0.777-0.765-1.782-1.147-3.016-1.147h-12.535c-1.431,0-2.763,0.506-3.996,1.518
			s-1.998,2.232-2.294,3.663l-2.22,10.359l-2.184,10.323c1.431,0,2.864-0.182,4.085-1.188c1.222-1.008,1.872-2.548,2.168-3.974
			l1.11-5.162l2.22-10.359h12.535l-1.109,5.18c1.43,0,2.756-0.505,3.978-1.517c1.221-1.012,1.991-2.232,2.313-3.663
			c0.073-0.37,0.11-0.74,0.11-1.11C197.825,21.469,197.437,20.494,196.66,19.729z"/>
	</g>
	<path fill="#FFFFFF" d="M114.078,18.796c-0.074,0.346-0.111,0.69-0.111,1.036c0,1.184,0.395,2.171,1.184,2.96
		s1.801,1.184,3.035,1.184h5.446l-4.229,19.817c1.123,0.506,2.2,0.396,3.227,0.006c1.027-0.392,1.785-0.957,2.27-2.037
		c0.143-0.314,0.256-0.656,0.34-1.025l3.573-16.76h4.914c1.43,0,2.756-0.505,3.977-1.517c1.223-1.012,1.98-2.232,2.277-3.663
		H114.078z"/>
</g>
</svg>
