<?xml version="1.0" encoding="utf-8"?>
<!-- Generator: Adobe Illustrator 15.1.0, SVG Export Plug-In  -->
<!DOCTYPE svg PUBLIC "-//W3C//DTD SVG 1.1 Basic//EN" "http://www.w3.org/Graphics/SVG/1.1/DTD/svg11-basic.dtd" [
	<!ENTITY ns_flows "http://ns.adobe.com/Flows/1.0/">
]>
<svg version="1.1" baseProfile="basic"
	 xmlns="http://www.w3.org/2000/svg" xmlns:xlink="http://www.w3.org/1999/xlink" xmlns:a="http://ns.adobe.com/AdobeSVGViewerExtensions/3.0/"
	 x="0px" y="0px" width="361px" height="82px" viewBox="-0.5 -1 361 82" overflow="visible" enable-background="new -0.5 -1 361 82"
	 xml:space="preserve">
<defs>
</defs>
<path fill="#0599CD" d="M66,45.8c0,17.4-14.1,31.5-31.5,31.5S3,63.2,3,45.8s14.1-31.5,31.5-31.5S66,28.4,66,45.8"/>
<path fill="#FFFFFF" d="M190.6,59.8l6.2-29.1c0.1-0.7,0.2-1.4,0.2-2c0-2.2-0.7-4-2.2-5.5c-0.6-0.6-1.4-1.5-2.1-1.5h-42.4
	c-0.1,0-0.1,0.8-0.1,1.3c0,2.2,0.7,3.9,2.2,5.4c1.5,1.5,3.3,2.1,5.6,2.1h29.1l-2.1,10.4H156c-2.6,0-5.1,0.7-7.4,2.6
	c-2.3,1.9-3.8,3.9-4.4,6.6l-2.1,9.7c-0.1,0.6-0.2,1.3-0.2,1.9c0,2.2,0.7,4,2.2,5.5c0.3,0.3,0.7,0.8,1.1,0.8h38.8
	c0.8,0,1.5-0.8,2.3-1.4C188.6,64.6,190.1,62.5,190.6,59.8z M180.9,59.2h-29.1l2.1-9.6H183L180.9,59.2z"/>
<path fill="#FFFFFF" d="M223.8,64.3c0.3-0.6,0.5-1,0.6-1.7l6.7-31.3h9.2c2.7,0,5.2-1,7.4-2.9c2.2-1.8,3.6-4,4.2-6.6h-48.4
	c-0.1,0.9-0.2,1.1-0.2,1.7c0,2.2,0.7,4.1,2.2,5.6c1.5,1.5,3.4,2.3,5.7,2.3h10.2l-7.9,36.6h6.1C221.6,67,222.9,66.3,223.8,64.3z"/>
<path fill="#FFFFFF" d="M131.8,59.8l2.1-9.6c0.2-0.7,0.3-1.4,0.3-2.1c0-2.2-0.7-3.8-2.2-5.3c-1.5-1.4-3.4-1.9-5.7-1.9H97.2l2.1-10.4
	h29.1c2.7,0,5.2-0.8,7.5-2.6c2.1-1.7,3.5-3.5,4.1-6.1H97.5c-1.2,0.9-2.4,1.2-3.6,2.1c-2.3,1.9-3.7,4.1-4.3,6.8l-2.1,9.7
	c-0.1,0.7-0.2,1.3-0.2,1.9c0,2.3,0.7,4,2.2,5.4c1.5,1.4,3.3,1.9,5.6,1.9h29.1l-2.1,9.6H83.4c-0.1,0.9-0.2,1.6-0.2,2.3
	c0,2.2,0.7,4.3,2.2,5.7c0.3,0.3,0.7,0.7,1,0.7h38.9c0.8,0,1.5-0.8,2.2-1.3C129.9,64.7,131.3,62.5,131.8,59.8z"/>
<path fill="#FFFFFF" d="M302.6,22v-0.2h-0.7C302.1,21.8,302.4,21.9,302.6,22z"/>
<polygon fill="none" points="261,59.2 290.1,59.2 292.1,49.6 263.1,49.6 "/>
<path fill="#FFFFFF" d="M358.1,23.2c-0.6-0.6-1.3-1.4-2.1-1.4h-30.8v0v0.4h-0.7c-1,0.6-2,0.9-2.9,1.7c-2.3,1.9-3.7,4.1-4.3,6.8
	L313.1,50l-3.8,17.9h5.9c0.5,0,1-0.5,1.5-0.9c2.3-1.9,3.5-4.7,4.1-7.3l2.1-9.7l4.2-19.5h23.5l-2.1,9.8c2.7,0,5.2-0.8,7.4-2.7
	c2.3-1.9,3.7-4.2,4.3-6.9c0.1-0.7,0.2-1.4,0.2-2.1C360.3,26.4,359.6,24.6,358.1,23.2z"/>
<path fill="#FFFFFF" d="M302.6,22c-0.2-0.1-0.5-0.2-0.7-0.2h0.7v0h-43.1c-0.1,0-0.1,0.8-0.1,1.3c0,2.2,0.7,3.9,2.2,5.4
	c1.5,1.5,3.3,2.1,5.6,2.1h29.1l-2.1,10.4h-29.1c-2.6,0-5.1,0.7-7.4,2.6c-2.3,1.9-3.7,3.9-4.4,6.6l-2.1,9.7c-0.1,0.6-0.2,1.3-0.2,1.9
	c0,2.2,0.7,4,2.2,5.5c0.3,0.3,0.7,0.8,1.1,0.8h38.8c0.8,0,1.5-0.8,2.3-1.4c2.3-1.9,3.7-4,4.3-6.7l6.2-29.1c0.1-0.7,0.2-1.4,0.2-2
	c0-2.2-0.7-4-2.2-5.5c-0.3-0.3-0.7-0.7-1.1-1h-0.3V22z M290.1,59.2H261l2.1-9.6h29.1L290.1,59.2z"/>
<path fill="#FFFFFF" d="M302.6,22.2h0.3c-0.1-0.1-0.2-0.1-0.3-0.2V22.2z"/>
<path fill="#FFFFFF" d="M325.2,21.8c-0.2,0.2-0.5,0.3-0.7,0.4h0.7V21.8z"/>
<path fill="#0599CD" d="M66,45.8c0,17.4-14.1,31.5-31.5,31.5S3,63.2,3,45.8s14.1-31.5,31.5-31.5S66,28.4,66,45.8"/>
<path fill="#FFFFFF" d="M190.6,59.8l6.2-29.1c0.1-0.7,0.2-1.4,0.2-2c0-2.2-0.7-4-2.2-5.5c-0.6-0.6-1.4-1.5-2.1-1.5h-42.4
	c-0.1,0-0.1,0.8-0.1,1.3c0,2.2,0.7,3.9,2.2,5.4c1.5,1.5,3.3,2.1,5.6,2.1h29.1l-2.1,10.4H156c-2.6,0-5.1,0.7-7.4,2.6
	c-2.3,1.9-3.8,3.9-4.4,6.6l-2.1,9.7c-0.1,0.6-0.2,1.3-0.2,1.9c0,2.2,0.7,4,2.2,5.5c0.3,0.3,0.7,0.8,1.1,0.8h38.8
	c0.8,0,1.5-0.8,2.3-1.4C188.6,64.6,190.1,62.5,190.6,59.8z M180.9,59.2h-29.1l2.1-9.6H183L180.9,59.2z"/>
<path fill="#FFFFFF" d="M223.8,64.3c0.3-0.6,0.5-1,0.6-1.7l6.7-31.3h9.2c2.7,0,5.2-1,7.4-2.9c2.2-1.8,3.6-4,4.2-6.6h-48.4
	c-0.1,0.9-0.2,1.1-0.2,1.7c0,2.2,0.7,4.1,2.2,5.6c1.5,1.5,3.4,2.3,5.7,2.3h10.2l-7.9,36.6h6.1C221.6,67,222.9,66.3,223.8,64.3z"/>
<path fill="#FFFFFF" d="M131.8,59.8l2.1-9.6c0.2-0.7,0.3-1.4,0.3-2.1c0-2.2-0.7-3.8-2.2-5.3c-1.5-1.4-3.4-1.9-5.7-1.9H97.2l2.1-10.4
	h29.1c2.7,0,5.2-0.8,7.5-2.6c2.1-1.7,3.5-3.5,4.1-6.1H97.5c-1.2,0.9-2.4,1.2-3.6,2.1c-2.3,1.9-3.7,4.1-4.3,6.8l-2.1,9.7
	c-0.1,0.7-0.2,1.3-0.2,1.9c0,2.3,0.7,4,2.2,5.4c1.5,1.4,3.3,1.9,5.6,1.9h29.1l-2.1,9.6H83.4c-0.1,0.9-0.2,1.6-0.2,2.3
	c0,2.2,0.7,4.3,2.2,5.7c0.3,0.3,0.7,0.7,1,0.7h38.9c0.8,0,1.5-0.8,2.2-1.3C129.9,64.7,131.3,62.5,131.8,59.8z"/>
<path fill="#FFFFFF" d="M302.6,22v-0.2h-0.7C302.1,21.8,302.4,21.9,302.6,22z"/>
<polygon fill="none" points="261,59.2 290.1,59.2 292.1,49.6 263.1,49.6 "/>
<path fill="#FFFFFF" d="M358.1,23.2c-0.6-0.6-1.3-1.4-2.1-1.4h-30.8v0v0.4h-0.7c-1,0.6-2,0.9-2.9,1.7c-2.3,1.9-3.7,4.1-4.3,6.8
	L313.1,50l-3.8,17.9h5.9c0.5,0,1-0.5,1.5-0.9c2.3-1.9,3.5-4.7,4.1-7.3l2.1-9.7l4.2-19.5h23.5l-2.1,9.8c2.7,0,5.2-0.8,7.4-2.7
	c2.3-1.9,3.7-4.2,4.3-6.9c0.1-0.7,0.2-1.4,0.2-2.1C360.3,26.4,359.6,24.6,358.1,23.2z"/>
<path fill="#FFFFFF" d="M302.6,22c-0.2-0.1-0.5-0.2-0.7-0.2h0.7v0h-43.1c-0.1,0-0.1,0.8-0.1,1.3c0,2.2,0.7,3.9,2.2,5.4
	c1.5,1.5,3.3,2.1,5.6,2.1h29.1l-2.1,10.4h-29.1c-2.6,0-5.1,0.7-7.4,2.6c-2.3,1.9-3.7,3.9-4.4,6.6l-2.1,9.7c-0.1,0.6-0.2,1.3-0.2,1.9
	c0,2.2,0.7,4,2.2,5.5c0.3,0.3,0.7,0.8,1.1,0.8h38.8c0.8,0,1.5-0.8,2.3-1.4c2.3-1.9,3.7-4,4.3-6.7l6.2-29.1c0.1-0.7,0.2-1.4,0.2-2
	c0-2.2-0.7-4-2.2-5.5c-0.3-0.3-0.7-0.7-1.1-1h-0.3V22z M290.1,59.2H261l2.1-9.6h29.1L290.1,59.2z"/>
<path fill="#FFFFFF" d="M302.6,22.2h0.3c-0.1-0.1-0.2-0.1-0.3-0.2V22.2z"/>
<path fill="#FFFFFF" d="M325.2,21.8c-0.2,0.2-0.5,0.3-0.7,0.4h0.7V21.8z"/>
<path fill="#0599CD" d="M66,45.8c0,17.4-14.1,31.5-31.5,31.5S3,63.2,3,45.8s14.1-31.5,31.5-31.5S66,28.4,66,45.8"/>
<path fill="#FFFFFF" d="M190.6,59.8l6.2-29.1c0.1-0.7,0.2-1.4,0.2-2c0-2.2-0.7-4-2.2-5.5c-0.6-0.6-1.4-1.5-2.1-1.5h-42.4
	c-0.1,0-0.1,0.8-0.1,1.3c0,2.2,0.7,3.9,2.2,5.4c1.5,1.5,3.3,2.1,5.6,2.1h29.1l-2.1,10.4H156c-2.6,0-5.1,0.7-7.4,2.6
	c-2.3,1.9-3.8,3.9-4.4,6.6l-2.1,9.7c-0.1,0.6-0.2,1.3-0.2,1.9c0,2.2,0.7,4,2.2,5.5c0.3,0.3,0.7,0.8,1.1,0.8h38.8
	c0.8,0,1.5-0.8,2.3-1.4C188.6,64.6,190.1,62.5,190.6,59.8z M180.9,59.2h-29.1l2.1-9.6H183L180.9,59.2z"/>
<path fill="#FFFFFF" d="M223.8,64.3c0.3-0.6,0.5-1,0.6-1.7l6.7-31.3h9.2c2.7,0,5.2-1,7.4-2.9c2.2-1.8,3.6-4,4.2-6.6h-48.4
	c-0.1,0.9-0.2,1.1-0.2,1.7c0,2.2,0.7,4.1,2.2,5.6c1.5,1.5,3.4,2.3,5.7,2.3h10.2l-7.9,36.6h6.1C221.6,67,222.9,66.3,223.8,64.3z"/>
<path fill="#FFFFFF" d="M131.8,59.8l2.1-9.6c0.2-0.7,0.3-1.4,0.3-2.1c0-2.2-0.7-3.8-2.2-5.3c-1.5-1.4-3.4-1.9-5.7-1.9H97.2l2.1-10.4
	h29.1c2.7,0,5.2-0.8,7.5-2.6c2.1-1.7,3.5-3.5,4.1-6.1H97.5c-1.2,0.9-2.4,1.2-3.6,2.1c-2.3,1.9-3.7,4.1-4.3,6.8l-2.1,9.7
	c-0.1,0.7-0.2,1.3-0.2,1.9c0,2.3,0.7,4,2.2,5.4c1.5,1.4,3.3,1.9,5.6,1.9h29.1l-2.1,9.6H83.4c-0.1,0.9-0.2,1.6-0.2,2.3
	c0,2.2,0.7,4.3,2.2,5.7c0.3,0.3,0.7,0.7,1,0.7h38.9c0.8,0,1.5-0.8,2.2-1.3C129.9,64.7,131.3,62.5,131.8,59.8z"/>
<path fill="#FFFFFF" d="M302.6,22v-0.2h-0.7C302.1,21.8,302.4,21.9,302.6,22z"/>
<polygon fill="none" points="261,59.2 290.1,59.2 292.1,49.6 263.1,49.6 "/>
<path fill="#FFFFFF" d="M358.1,23.2c-0.6-0.6-1.3-1.4-2.1-1.4h-30.8v0v0.4h-0.7c-1,0.6-2,0.9-2.9,1.7c-2.3,1.9-3.7,4.1-4.3,6.8
	L313.1,50l-3.8,17.9h5.9c0.5,0,1-0.5,1.5-0.9c2.3-1.9,3.5-4.7,4.1-7.3l2.1-9.7l4.2-19.5h23.5l-2.1,9.8c2.7,0,5.2-0.8,7.4-2.7
	c2.3-1.9,3.7-4.2,4.3-6.9c0.1-0.7,0.2-1.4,0.2-2.1C360.3,26.4,359.6,24.6,358.1,23.2z"/>
<path fill="#FFFFFF" d="M302.6,22c-0.2-0.1-0.5-0.2-0.7-0.2h0.7v0h-43.1c-0.1,0-0.1,0.8-0.1,1.3c0,2.2,0.7,3.9,2.2,5.4
	c1.5,1.5,3.3,2.1,5.6,2.1h29.1l-2.1,10.4h-29.1c-2.6,0-5.1,0.7-7.4,2.6c-2.3,1.9-3.7,3.9-4.4,6.6l-2.1,9.7c-0.1,0.6-0.2,1.3-0.2,1.9
	c0,2.2,0.7,4,2.2,5.5c0.3,0.3,0.7,0.8,1.1,0.8h38.8c0.8,0,1.5-0.8,2.3-1.4c2.3-1.9,3.7-4,4.3-6.7l6.2-29.1c0.1-0.7,0.2-1.4,0.2-2
	c0-2.2-0.7-4-2.2-5.5c-0.3-0.3-0.7-0.7-1.1-1h-0.3V22z M290.1,59.2H261l2.1-9.6h29.1L290.1,59.2z"/>
<path fill="#FFFFFF" d="M302.6,22.2h0.3c-0.1-0.1-0.2-0.1-0.3-0.2V22.2z"/>
<path fill="#FFFFFF" d="M325.2,21.8c-0.2,0.2-0.5,0.3-0.7,0.4h0.7V21.8z"/>
<path fill="#0599CD" d="M66,45.8c0,17.4-14.1,31.5-31.5,31.5S3,63.2,3,45.8s14.1-31.5,31.5-31.5S66,28.4,66,45.8"/>
<path fill="#FFFFFF" d="M190.6,59.8l6.2-29.1c0.1-0.7,0.2-1.4,0.2-2c0-2.2-0.7-4-2.2-5.5c-0.6-0.6-1.4-1.5-2.1-1.5h-42.4
	c-0.1,0-0.1,0.8-0.1,1.3c0,2.2,0.7,3.9,2.2,5.4c1.5,1.5,3.3,2.1,5.6,2.1h29.1l-2.1,10.4H156c-2.6,0-5.1,0.7-7.4,2.6
	c-2.3,1.9-3.8,3.9-4.4,6.6l-2.1,9.7c-0.1,0.6-0.2,1.3-0.2,1.9c0,2.2,0.7,4,2.2,5.5c0.3,0.3,0.7,0.8,1.1,0.8h38.8
	c0.8,0,1.5-0.8,2.3-1.4C188.6,64.6,190.1,62.5,190.6,59.8z M180.9,59.2h-29.1l2.1-9.6H183L180.9,59.2z"/>
<path fill="#FFFFFF" d="M223.8,64.3c0.3-0.6,0.5-1,0.6-1.7l6.7-31.3h9.2c2.7,0,5.2-1,7.4-2.9c2.2-1.8,3.6-4,4.2-6.6h-48.4
	c-0.1,0.9-0.2,1.1-0.2,1.7c0,2.2,0.7,4.1,2.2,5.6c1.5,1.5,3.4,2.3,5.7,2.3h10.2l-7.9,36.6h6.1C221.6,67,222.9,66.3,223.8,64.3z"/>
<path fill="#FFFFFF" d="M131.8,59.8l2.1-9.6c0.2-0.7,0.3-1.4,0.3-2.1c0-2.2-0.7-3.8-2.2-5.3c-1.5-1.4-3.4-1.9-5.7-1.9H97.2l2.1-10.4
	h29.1c2.7,0,5.2-0.8,7.5-2.6c2.1-1.7,3.5-3.5,4.1-6.1H97.5c-1.2,0.9-2.4,1.2-3.6,2.1c-2.3,1.9-3.7,4.1-4.3,6.8l-2.1,9.7
	c-0.1,0.7-0.2,1.3-0.2,1.9c0,2.3,0.7,4,2.2,5.4c1.5,1.4,3.3,1.9,5.6,1.9h29.1l-2.1,9.6H83.4c-0.1,0.9-0.2,1.6-0.2,2.3
	c0,2.2,0.7,4.3,2.2,5.7c0.3,0.3,0.7,0.7,1,0.7h38.9c0.8,0,1.5-0.8,2.2-1.3C129.9,64.7,131.3,62.5,131.8,59.8z"/>
<path fill="#FFFFFF" d="M302.6,22v-0.2h-0.7C302.1,21.8,302.4,21.9,302.6,22z"/>
<polygon fill="none" points="261,59.2 290.1,59.2 292.1,49.6 263.1,49.6 "/>
<path fill="#FFFFFF" d="M358.1,23.2c-0.6-0.6-1.3-1.4-2.1-1.4h-30.8v0v0.4h-0.7c-1,0.6-2,0.9-2.9,1.7c-2.3,1.9-3.7,4.1-4.3,6.8
	L313.1,50l-3.8,17.9h5.9c0.5,0,1-0.5,1.5-0.9c2.3-1.9,3.5-4.7,4.1-7.3l2.1-9.7l4.2-19.5h23.5l-2.1,9.8c2.7,0,5.2-0.8,7.4-2.7
	c2.3-1.9,3.7-4.2,4.3-6.9c0.1-0.7,0.2-1.4,0.2-2.1C360.3,26.4,359.6,24.6,358.1,23.2z"/>
<path fill="#FFFFFF" d="M302.6,22c-0.2-0.1-0.5-0.2-0.7-0.2h0.7v0h-43.1c-0.1,0-0.1,0.8-0.1,1.3c0,2.2,0.7,3.9,2.2,5.4
	c1.5,1.5,3.3,2.1,5.6,2.1h29.1l-2.1,10.4h-29.1c-2.6,0-5.1,0.7-7.4,2.6c-2.3,1.9-3.7,3.9-4.4,6.6l-2.1,9.7c-0.1,0.6-0.2,1.3-0.2,1.9
	c0,2.2,0.7,4,2.2,5.5c0.3,0.3,0.7,0.8,1.1,0.8h38.8c0.8,0,1.5-0.8,2.3-1.4c2.3-1.9,3.7-4,4.3-6.7l6.2-29.1c0.1-0.7,0.2-1.4,0.2-2
	c0-2.2-0.7-4-2.2-5.5c-0.3-0.3-0.7-0.7-1.1-1h-0.3V22z M290.1,59.2H261l2.1-9.6h29.1L290.1,59.2z"/>
<path fill="#FFFFFF" d="M302.6,22.2h0.3c-0.1-0.1-0.2-0.1-0.3-0.2V22.2z"/>
<path fill="#FFFFFF" d="M325.2,21.8c-0.2,0.2-0.5,0.3-0.7,0.4h0.7V21.8z"/>
<path fill="#0599CD" d="M66,45.8c0,17.4-14.1,31.5-31.5,31.5S3,63.2,3,45.8s14.1-31.5,31.5-31.5S66,28.4,66,45.8"/>
<path fill="#FFFFFF" d="M190.6,59.8l6.2-29.1c0.1-0.7,0.2-1.4,0.2-2c0-2.2-0.7-4-2.2-5.5c-0.6-0.6-1.4-1.5-2.1-1.5h-42.4
	c-0.1,0-0.1,0.8-0.1,1.3c0,2.2,0.7,3.9,2.2,5.4c1.5,1.5,3.3,2.1,5.6,2.1h29.1l-2.1,10.4H156c-2.6,0-5.1,0.7-7.4,2.6
	c-2.3,1.9-3.8,3.9-4.4,6.6l-2.1,9.7c-0.1,0.6-0.2,1.3-0.2,1.9c0,2.2,0.7,4,2.2,5.5c0.3,0.3,0.7,0.8,1.1,0.8h38.8
	c0.8,0,1.5-0.8,2.3-1.4C188.6,64.6,190.1,62.5,190.6,59.8z M180.9,59.2h-29.1l2.1-9.6H183L180.9,59.2z"/>
<path fill="#FFFFFF" d="M223.8,64.3c0.3-0.6,0.5-1,0.6-1.7l6.7-31.3h9.2c2.7,0,5.2-1,7.4-2.9c2.2-1.8,3.6-4,4.2-6.6h-48.4
	c-0.1,0.9-0.2,1.1-0.2,1.7c0,2.2,0.7,4.1,2.2,5.6c1.5,1.5,3.4,2.3,5.7,2.3h10.2l-7.9,36.6h6.1C221.6,67,222.9,66.3,223.8,64.3z"/>
<path fill="#FFFFFF" d="M131.8,59.8l2.1-9.6c0.2-0.7,0.3-1.4,0.3-2.1c0-2.2-0.7-3.8-2.2-5.3c-1.5-1.4-3.4-1.9-5.7-1.9H97.2l2.1-10.4
	h29.1c2.7,0,5.2-0.8,7.5-2.6c2.1-1.7,3.5-3.5,4.1-6.1H97.5c-1.2,0.9-2.4,1.2-3.6,2.1c-2.3,1.9-3.7,4.1-4.3,6.8l-2.1,9.7
	c-0.1,0.7-0.2,1.3-0.2,1.9c0,2.3,0.7,4,2.2,5.4c1.5,1.4,3.3,1.9,5.6,1.9h29.1l-2.1,9.6H83.4c-0.1,0.9-0.2,1.6-0.2,2.3
	c0,2.2,0.7,4.3,2.2,5.7c0.3,0.3,0.7,0.7,1,0.7h38.9c0.8,0,1.5-0.8,2.2-1.3C129.9,64.7,131.3,62.5,131.8,59.8z"/>
<path fill="#FFFFFF" d="M302.6,22v-0.2h-0.7C302.1,21.8,302.4,21.9,302.6,22z"/>
<polygon fill="none" points="261,59.2 290.1,59.2 292.1,49.6 263.1,49.6 "/>
<path fill="#FFFFFF" d="M358.1,23.2c-0.6-0.6-1.3-1.4-2.1-1.4h-30.8v0v0.4h-0.7c-1,0.6-2,0.9-2.9,1.7c-2.3,1.9-3.7,4.1-4.3,6.8
	L313.1,50l-3.8,17.9h5.9c0.5,0,1-0.5,1.5-0.9c2.3-1.9,3.5-4.7,4.1-7.3l2.1-9.7l4.2-19.5h23.5l-2.1,9.8c2.7,0,5.2-0.8,7.4-2.7
	c2.3-1.9,3.7-4.2,4.3-6.9c0.1-0.7,0.2-1.4,0.2-2.1C360.3,26.4,359.6,24.6,358.1,23.2z"/>
<path fill="#FFFFFF" d="M302.6,22c-0.2-0.1-0.5-0.2-0.7-0.2h0.7v0h-43.1c-0.1,0-0.1,0.8-0.1,1.3c0,2.2,0.7,3.9,2.2,5.4
	c1.5,1.5,3.3,2.1,5.6,2.1h29.1l-2.1,10.4h-29.1c-2.6,0-5.1,0.7-7.4,2.6c-2.3,1.9-3.7,3.9-4.4,6.6l-2.1,9.7c-0.1,0.6-0.2,1.3-0.2,1.9
	c0,2.2,0.7,4,2.2,5.5c0.3,0.3,0.7,0.8,1.1,0.8h38.8c0.8,0,1.5-0.8,2.3-1.4c2.3-1.9,3.7-4,4.3-6.7l6.2-29.1c0.1-0.7,0.2-1.4,0.2-2
	c0-2.2-0.7-4-2.2-5.5c-0.3-0.3-0.7-0.7-1.1-1h-0.3V22z M290.1,59.2H261l2.1-9.6h29.1L290.1,59.2z"/>
<path fill="#FFFFFF" d="M302.6,22.2h0.3c-0.1-0.1-0.2-0.1-0.3-0.2V22.2z"/>
<path fill="#FFFFFF" d="M325.2,21.8c-0.2,0.2-0.5,0.3-0.7,0.4h0.7V21.8z"/>
<path fill="#0599CD" d="M66,45.8c0,17.4-14.1,31.5-31.5,31.5S3,63.2,3,45.8s14.1-31.5,31.5-31.5S66,28.4,66,45.8"/>
<path fill="#FFFFFF" d="M190.6,59.8l6.2-29.1c0.1-0.7,0.2-1.4,0.2-2c0-2.2-0.7-4-2.2-5.5c-0.6-0.6-1.4-1.5-2.1-1.5h-42.4
	c-0.1,0-0.1,0.8-0.1,1.3c0,2.2,0.7,3.9,2.2,5.4c1.5,1.5,3.3,2.1,5.6,2.1h29.1l-2.1,10.4H156c-2.6,0-5.1,0.7-7.4,2.6
	c-2.3,1.9-3.8,3.9-4.4,6.6l-2.1,9.7c-0.1,0.6-0.2,1.3-0.2,1.9c0,2.2,0.7,4,2.2,5.5c0.3,0.3,0.7,0.8,1.1,0.8h38.8
	c0.8,0,1.5-0.8,2.3-1.4C188.6,64.6,190.1,62.5,190.6,59.8z M180.9,59.2h-29.1l2.1-9.6H183L180.9,59.2z"/>
<path fill="#FFFFFF" d="M223.8,64.3c0.3-0.6,0.5-1,0.6-1.7l6.7-31.3h9.2c2.7,0,5.2-1,7.4-2.9c2.2-1.8,3.6-4,4.2-6.6h-48.4
	c-0.1,0.9-0.2,1.1-0.2,1.7c0,2.2,0.7,4.1,2.2,5.6c1.5,1.5,3.4,2.3,5.7,2.3h10.2l-7.9,36.6h6.1C221.6,67,222.9,66.3,223.8,64.3z"/>
<path fill="#FFFFFF" d="M131.8,59.8l2.1-9.6c0.2-0.7,0.3-1.4,0.3-2.1c0-2.2-0.7-3.8-2.2-5.3c-1.5-1.4-3.4-1.9-5.7-1.9H97.2l2.1-10.4
	h29.1c2.7,0,5.2-0.8,7.5-2.6c2.1-1.7,3.5-3.5,4.1-6.1H97.5c-1.2,0.9-2.4,1.2-3.6,2.1c-2.3,1.9-3.7,4.1-4.3,6.8l-2.1,9.7
	c-0.1,0.7-0.2,1.3-0.2,1.9c0,2.3,0.7,4,2.2,5.4c1.5,1.4,3.3,1.9,5.6,1.9h29.1l-2.1,9.6H83.4c-0.1,0.9-0.2,1.6-0.2,2.3
	c0,2.2,0.7,4.3,2.2,5.7c0.3,0.3,0.7,0.7,1,0.7h38.9c0.8,0,1.5-0.8,2.2-1.3C129.9,64.7,131.3,62.5,131.8,59.8z"/>
<path fill="#FFFFFF" d="M302.6,22v-0.2h-0.7C302.1,21.8,302.4,21.9,302.6,22z"/>
<polygon fill="none" points="261,59.2 290.1,59.2 292.1,49.6 263.1,49.6 "/>
<path fill="#FFFFFF" d="M358.1,23.2c-0.6-0.6-1.3-1.4-2.1-1.4h-30.8v0v0.4h-0.7c-1,0.6-2,0.9-2.9,1.7c-2.3,1.9-3.7,4.1-4.3,6.8
	L313.1,50l-3.8,17.9h5.9c0.5,0,1-0.5,1.5-0.9c2.3-1.9,3.5-4.7,4.1-7.3l2.1-9.7l4.2-19.5h23.5l-2.1,9.8c2.7,0,5.2-0.8,7.4-2.7
	c2.3-1.9,3.7-4.2,4.3-6.9c0.1-0.7,0.2-1.4,0.2-2.1C360.3,26.4,359.6,24.6,358.1,23.2z"/>
<path fill="#FFFFFF" d="M302.6,22c-0.2-0.1-0.5-0.2-0.7-0.2h0.7v0h-43.1c-0.1,0-0.1,0.8-0.1,1.3c0,2.2,0.7,3.9,2.2,5.4
	c1.5,1.5,3.3,2.1,5.6,2.1h29.1l-2.1,10.4h-29.1c-2.6,0-5.1,0.7-7.4,2.6c-2.3,1.9-3.7,3.9-4.4,6.6l-2.1,9.7c-0.1,0.6-0.2,1.3-0.2,1.9
	c0,2.2,0.7,4,2.2,5.5c0.3,0.3,0.7,0.8,1.1,0.8h38.8c0.8,0,1.5-0.8,2.3-1.4c2.3-1.9,3.7-4,4.3-6.7l6.2-29.1c0.1-0.7,0.2-1.4,0.2-2
	c0-2.2-0.7-4-2.2-5.5c-0.3-0.3-0.7-0.7-1.1-1h-0.3V22z M290.1,59.2H261l2.1-9.6h29.1L290.1,59.2z"/>
<path fill="#FFFFFF" d="M302.6,22.2h0.3c-0.1-0.1-0.2-0.1-0.3-0.2V22.2z"/>
<path fill="#FFFFFF" d="M325.2,21.8c-0.2,0.2-0.5,0.3-0.7,0.4h0.7V21.8z"/>
<path fill="#0599CD" d="M66,45.8c0,17.4-14.1,31.5-31.5,31.5S3,63.2,3,45.8s14.1-31.5,31.5-31.5S66,28.4,66,45.8"/>
<path fill="#FFFFFF" d="M190.6,59.8l6.2-29.1c0.1-0.7,0.2-1.4,0.2-2c0-2.2-0.7-4-2.2-5.5c-0.6-0.6-1.4-1.5-2.1-1.5h-42.4
	c-0.1,0-0.1,0.8-0.1,1.3c0,2.2,0.7,3.9,2.2,5.4c1.5,1.5,3.3,2.1,5.6,2.1h29.1l-2.1,10.4H156c-2.6,0-5.1,0.7-7.4,2.6
	c-2.3,1.9-3.8,3.9-4.4,6.6l-2.1,9.7c-0.1,0.6-0.2,1.3-0.2,1.9c0,2.2,0.7,4,2.2,5.5c0.3,0.3,0.7,0.8,1.1,0.8h38.8
	c0.8,0,1.5-0.8,2.3-1.4C188.6,64.6,190.1,62.5,190.6,59.8z M180.9,59.2h-29.1l2.1-9.6H183L180.9,59.2z"/>
<path fill="#FFFFFF" d="M223.8,64.3c0.3-0.6,0.5-1,0.6-1.7l6.7-31.3h9.2c2.7,0,5.2-1,7.4-2.9c2.2-1.8,3.6-4,4.2-6.6h-48.4
	c-0.1,0.9-0.2,1.1-0.2,1.7c0,2.2,0.7,4.1,2.2,5.6c1.5,1.5,3.4,2.3,5.7,2.3h10.2l-7.9,36.6h6.1C221.6,67,222.9,66.3,223.8,64.3z"/>
<path fill="#FFFFFF" d="M131.8,59.8l2.1-9.6c0.2-0.7,0.3-1.4,0.3-2.1c0-2.2-0.7-3.8-2.2-5.3c-1.5-1.4-3.4-1.9-5.7-1.9H97.2l2.1-10.4
	h29.1c2.7,0,5.2-0.8,7.5-2.6c2.1-1.7,3.5-3.5,4.1-6.1H97.5c-1.2,0.9-2.4,1.2-3.6,2.1c-2.3,1.9-3.7,4.1-4.3,6.8l-2.1,9.7
	c-0.1,0.7-0.2,1.3-0.2,1.9c0,2.3,0.7,4,2.2,5.4c1.5,1.4,3.3,1.9,5.6,1.9h29.1l-2.1,9.6H83.4c-0.1,0.9-0.2,1.6-0.2,2.3
	c0,2.2,0.7,4.3,2.2,5.7c0.3,0.3,0.7,0.7,1,0.7h38.9c0.8,0,1.5-0.8,2.2-1.3C129.9,64.7,131.3,62.5,131.8,59.8z"/>
<path fill="#FFFFFF" d="M302.6,22v-0.2h-0.7C302.1,21.8,302.4,21.9,302.6,22z"/>
<polygon fill="none" points="261,59.2 290.1,59.2 292.1,49.6 263.1,49.6 "/>
<path fill="#FFFFFF" d="M358.1,23.2c-0.6-0.6-1.3-1.4-2.1-1.4h-30.8v0v0.4h-0.7c-1,0.6-2,0.9-2.9,1.7c-2.3,1.9-3.7,4.1-4.3,6.8
	L313.1,50l-3.8,17.9h5.9c0.5,0,1-0.5,1.5-0.9c2.3-1.9,3.5-4.7,4.1-7.3l2.1-9.7l4.2-19.5h23.5l-2.1,9.8c2.7,0,5.2-0.8,7.4-2.7
	c2.3-1.9,3.7-4.2,4.3-6.9c0.1-0.7,0.2-1.4,0.2-2.1C360.3,26.4,359.6,24.6,358.1,23.2z"/>
<path fill="#FFFFFF" d="M302.6,22c-0.2-0.1-0.5-0.2-0.7-0.2h0.7v0h-43.1c-0.1,0-0.1,0.8-0.1,1.3c0,2.2,0.7,3.9,2.2,5.4
	c1.5,1.5,3.3,2.1,5.6,2.1h29.1l-2.1,10.4h-29.1c-2.6,0-5.1,0.7-7.4,2.6c-2.3,1.9-3.7,3.9-4.4,6.6l-2.1,9.7c-0.1,0.6-0.2,1.3-0.2,1.9
	c0,2.2,0.7,4,2.2,5.5c0.3,0.3,0.7,0.8,1.1,0.8h38.8c0.8,0,1.5-0.8,2.3-1.4c2.3-1.9,3.7-4,4.3-6.7l6.2-29.1c0.1-0.7,0.2-1.4,0.2-2
	c0-2.2-0.7-4-2.2-5.5c-0.3-0.3-0.7-0.7-1.1-1h-0.3V22z M290.1,59.2H261l2.1-9.6h29.1L290.1,59.2z"/>
<path fill="#FFFFFF" d="M302.6,22.2h0.3c-0.1-0.1-0.2-0.1-0.3-0.2V22.2z"/>
<path fill="#FFFFFF" d="M325.2,21.8c-0.2,0.2-0.5,0.3-0.7,0.4h0.7V21.8z"/>
<path fill="#0599CD" d="M66,45.8c0,17.4-14.1,31.5-31.5,31.5S3,63.2,3,45.8s14.1-31.5,31.5-31.5S66,28.4,66,45.8"/>
<g>
	<defs>
		<rect id="SVGID_1_" y="0" width="68.7" height="80.3"/>
	</defs>
	<clipPath id="SVGID_2_">
		<use xlink:href="#SVGID_1_"  overflow="visible"/>
	</clipPath>
	<path clip-path="url(#SVGID_2_)" fill="#282828" d="M57.8,20.8l2.5-3c1.5,0.4,3.1-0.1,4.1-1.3c1.4-1.7,1.2-4.3-0.5-5.8
		c-1.7-1.4-4.3-1.2-5.8,0.5c-1,1.2-1.2,2.9-0.6,4.3l-2.5,3c-5.3-4-11.8-6.5-18.9-6.9V7.7c1.4-0.7,2.3-2.1,2.3-3.7
		c0-2.3-1.8-4.1-4.1-4.1c-2.3,0-4.1,1.8-4.1,4.1c0,1.6,0.9,3,2.3,3.7v3.9C25.5,12,19,14.5,13.7,18.5l-2.5-3c0.6-1.4,0.4-3-0.6-4.3
		c-1.4-1.7-4-2-5.7-0.5c-1.7,1.4-2,4-0.5,5.8c1,1.2,2.6,1.7,4.1,1.3l2.5,3C4.2,27.1,0,36,0,46c0,19,15.4,34.4,34.4,34.4
		c19,0,34.4-15.4,34.4-34.4C68.7,36,64.5,27.1,57.8,20.8 M34.4,76.9c-17.1,0-31-13.9-31-31c0-17.1,13.9-31,31-31
		c17.1,0,31,13.9,31,31C65.3,63.1,51.5,76.9,34.4,76.9"/>
	<path clip-path="url(#SVGID_2_)" fill="#282828" d="M61.7,46c0,15.1-12.3,27.4-27.4,27.4C19.2,73.3,7,61.1,7,46
		c0-15.1,12.3-27.4,27.4-27.4C49.5,18.6,61.7,30.8,61.7,46"/>
	<path clip-path="url(#SVGID_2_)" fill="#E84329" d="M30.5,35.6C30.5,35.6,30.5,35.6,30.5,35.6l20.8,0c0.1-0.5,0.1-0.9,0.1-1.4
		c0-1.5-0.5-2.7-1.5-3.6c-1-1-2.2-1.4-3.8-1.4l-7.8,0h-7h-2.4c-1.8,0-3.4,0.6-4.9,1.9c-1.5,1.3-2.5,2.8-2.9,4.6L19.7,42
		c-0.1,0.5-0.1,0.9-0.1,1.3c0,1.5,0.5,2.7,1.5,3.7c1,0.9,2.2,1.4,3.8,1.4h17.8l-1.4,6.4H17c-0.1,0.5-0.1,0.9-0.1,1.4
		c0,1.5,0.5,2.7,1.5,3.6c1,1,2.2,1.4,3.8,1.4h17.8c1.8,0,3.4-0.6,4.9-1.9c1.5-1.2,2.5-2.8,2.8-4.6l1.4-6.4c0.1-0.5,0.2-1,0.2-1.4
		c0-1.4-0.5-2.6-1.5-3.6c-1-1-2.2-1.4-3.8-1.4H26.2l1.4-6.4H30.5z"/>
</g>
<path fill="#FFFFFF" d="M190.6,59.8l6.2-29.1c0.1-0.7,0.2-1.4,0.2-2c0-2.2-0.7-4-2.2-5.5c-0.6-0.6-1.4-1.5-2.1-1.5h-42.4
	c-0.1,0-0.1,0.8-0.1,1.3c0,2.2,0.7,3.9,2.2,5.4c1.5,1.5,3.3,2.1,5.6,2.1h29.1l-2.1,10.4H156c-2.6,0-5.1,0.7-7.4,2.6
	c-2.3,1.9-3.8,3.9-4.4,6.6l-2.1,9.7c-0.1,0.6-0.2,1.3-0.2,1.9c0,2.2,0.7,4,2.2,5.5c0.3,0.3,0.7,0.8,1.1,0.8h38.8
	c0.8,0,1.5-0.8,2.3-1.4C188.6,64.6,190.1,62.5,190.6,59.8z M180.9,59.2h-29.1l2.1-9.6H183L180.9,59.2z"/>
<path fill="#FFFFFF" d="M223.8,64.3c0.3-0.6,0.5-1,0.6-1.7l6.7-31.3h9.2c2.7,0,5.2-1,7.4-2.9c2.2-1.8,3.6-4,4.2-6.6h-48.4
	c-0.1,0.9-0.2,1.1-0.2,1.7c0,2.2,0.7,4.1,2.2,5.6c1.5,1.5,3.4,2.3,5.7,2.3h10.2l-7.9,36.6h6.1C221.6,67,222.9,66.3,223.8,64.3z"/>
<path fill="#FFFFFF" d="M131.8,59.8l2.1-9.6c0.2-0.7,0.3-1.4,0.3-2.1c0-2.2-0.7-3.8-2.2-5.3c-1.5-1.4-3.4-1.9-5.7-1.9H97.2l2.1-10.4
	h29.1c2.7,0,5.2-0.8,7.5-2.6c2.1-1.7,3.5-3.5,4.1-6.1H97.5c-1.2,0.9-2.4,1.2-3.6,2.1c-2.3,1.9-3.7,4.1-4.3,6.8l-2.1,9.7
	c-0.1,0.7-0.2,1.3-0.2,1.9c0,2.3,0.7,4,2.2,5.4c1.5,1.4,3.3,1.9,5.6,1.9h29.1l-2.1,9.6H83.4c-0.1,0.9-0.2,1.6-0.2,2.3
	c0,2.2,0.7,4.3,2.2,5.7c0.3,0.3,0.7,0.7,1,0.7h38.9c0.8,0,1.5-0.8,2.2-1.3C129.9,64.7,131.3,62.5,131.8,59.8z"/>
<path fill="#FFFFFF" d="M302.6,22v-0.2h-0.7C302.1,21.8,302.4,21.9,302.6,22z"/>
<polygon fill="none" points="261,59.2 290.1,59.2 292.1,49.6 263.1,49.6 "/>
<path fill="#FFFFFF" d="M358.1,23.2c-0.6-0.6-1.3-1.4-2.1-1.4h-30.8v0v0.4h-0.7c-1,0.6-2,0.9-2.9,1.7c-2.3,1.9-3.7,4.1-4.3,6.8
	L313.1,50l-3.8,17.9h5.9c0.5,0,1-0.5,1.5-0.9c2.3-1.9,3.5-4.7,4.1-7.3l2.1-9.7l4.2-19.5h23.5l-2.1,9.8c2.7,0,5.2-0.8,7.4-2.7
	c2.3-1.9,3.7-4.2,4.3-6.9c0.1-0.7,0.2-1.4,0.2-2.1C360.3,26.4,359.6,24.6,358.1,23.2z"/>
<path fill="#FFFFFF" d="M302.6,22c-0.2-0.1-0.5-0.2-0.7-0.2h0.7v0h-43.1c-0.1,0-0.1,0.8-0.1,1.3c0,2.2,0.7,3.9,2.2,5.4
	c1.5,1.5,3.3,2.1,5.6,2.1h29.1l-2.1,10.4h-29.1c-2.6,0-5.1,0.7-7.4,2.6c-2.3,1.9-3.7,3.9-4.4,6.6l-2.1,9.7c-0.1,0.6-0.2,1.3-0.2,1.9
	c0,2.2,0.7,4,2.2,5.5c0.3,0.3,0.7,0.8,1.1,0.8h38.8c0.8,0,1.5-0.8,2.3-1.4c2.3-1.9,3.7-4,4.3-6.7l6.2-29.1c0.1-0.7,0.2-1.4,0.2-2
	c0-2.2-0.7-4-2.2-5.5c-0.3-0.3-0.7-0.7-1.1-1h-0.3V22z M290.1,59.2H261l2.1-9.6h29.1L290.1,59.2z"/>
<path fill="#FFFFFF" d="M302.6,22.2h0.3c-0.1-0.1-0.2-0.1-0.3-0.2V22.2z"/>
<path fill="#FFFFFF" d="M325.2,21.8c-0.2,0.2-0.5,0.3-0.7,0.4h0.7V21.8z"/>
</svg>
