<?xml version="1.0" encoding="utf-8"?>
<!-- Generator: Adobe Illustrator 16.0.0, SVG Export Plug-In . SVG Version: 6.00 Build 0)  -->
<!DOCTYPE svg PUBLIC "-//W3C//DTD SVG 1.1//EN" "http://www.w3.org/Graphics/SVG/1.1/DTD/svg11.dtd">
<svg version="1.1" xmlns="http://www.w3.org/2000/svg" xmlns:xlink="http://www.w3.org/1999/xlink" x="0px" y="0px" width="420px"
	 height="100px" viewBox="0 0 420 100" enable-background="new 0 0 420 100" xml:space="preserve">
<g id="blue_top_bar_header">
	<g>
		<path fill="#0099CC" d="M246.442871,41c-2.653809,0-4.828613-0.969727-6.524414-2.666016
			c-1.695801-1.695313-2.544434-3.864258-2.544434-6.408691c0-0.626953,0.070313-0.925293,0.183594-1.925293h-12.414551
			c0.914063,0,1.740234,0.955078,2.467773,1.683105c1.669434,1.670898,2.504883,3.770996,2.504883,6.314941
			c0,0.743164-0.080078,1.507813-0.237793,2.303711l-7.157227,33.400391c-0.638184,3.075684-2.267578,5.534668-4.893066,7.709473
			C216.980469,82.113281,216.106934,83,215.213379,83h33.850098l9.085938-42H246.442871z"/>
		<polygon fill="#0099CC" points="178.181152,73 211.584961,73 213.971191,62 180.567383,62 		"/>
		<path fill="#0099CC" d="M373.108398,32.439453C374.44043,31.346191,375.827148,31,377.26709,30H350.47998
			c0.913574,0,1.739746,0.955078,2.467773,1.683105c1.668945,1.670898,2.504395,3.770996,2.504395,6.314941
			c0,0.743164-0.080078,1.507813-0.236816,2.303711l-7.158203,33.400391c-0.638184,3.075684-2.26709,5.534668-4.893555,7.709473
			C342.316895,82.113281,341.443848,83,340.549805,83h18.464355l4.391602-20.599609l4.771484-22.176758
			C368.812988,37.147949,370.457031,34.613281,373.108398,32.439453z"/>
		<path fill="#0099CC" d="M216.35791,52l2.384766-12h-33.40332c-2.651367,0-4.811523-0.686523-6.482422-2.357422
			c-1.668457-1.669434-2.503906-3.65918-2.503906-6.15332c0-0.526855,0.047852-1.489258,0.117676-1.489258h-11.912598
			c-0.733398,3-2.309082,5.003418-4.748047,6.966797C157.158691,39.097168,154.29541,40,151.221191,40h-33.40332l-2.386719,12
			h33.40332c2.651855,0,4.825195,0.538574,6.521973,2.182129c1.695801,1.644043,2.54541,3.568359,2.54541,6.060547
			c0,0.79541-0.107422,1.547363-0.318359,2.393066l-2.386719,11.064453c-0.63623,3.128418-2.266113,5.603516-4.891113,7.750977
			C149.469238,82.134766,148.60791,83,147.726074,83h22.886719c-0.444336,0-0.865723-0.480469-1.258301-0.873047
			c-1.698242-1.696289-2.545898-3.736816-2.545898-6.280762c0-0.743164,0.079102-1.443848,0.23877-2.187012l2.387207-11.115234
			c0.740723-3.020508,2.424316-5.336914,5.049316-7.539063C177.10791,52.807617,179.932617,52,182.95459,52H216.35791z"/>
		<path fill="#0099CC" d="M412.685059,30c0.902344,0,1.71875,0.93457,2.439453,1.643066
			c1.668945,1.643555,2.503418,3.730957,2.503418,6.274902c0,0.795898-0.079102,1.587891-0.236816,2.383789
			c-0.69043,3.074707-2.348145,5.696289-4.970703,7.871094c-2.626953,2.174805-5.476563,3.109863-8.549316,3.109863L406.254883,40
			h-26.944336l-4.770996,22.415527l-2.386719,11.170898c-0.635742,3.06543-2.03418,6.248047-4.660156,8.415039
			C366.941895,82.455078,366.366699,83,365.779785,83h54.886719V30H412.685059z"/>
		<path fill="#0099CC" d="M341.694336,52l2.384766-12h-33.40332c-2.651367,0-4.811523-0.686523-6.481934-2.357422
			c-1.668945-1.669434-2.504395-3.65918-2.504395-6.15332c0-0.526855,0.047363-1.489258,0.117676-1.489258h-8.605957
			c-0.687012,3-2.280762,5.541992-4.807129,7.632813C285.77002,39.808594,282.918945,41,279.845703,41h-10.5625l-7.681152,35.904297
			c-0.180176,0.793945-0.42334,1.303711-0.730469,1.97998C259.845215,81.172852,258.244141,82,256.081543,83h39.867676
			c-0.443848,0-0.865234-0.480469-1.258301-0.873047c-1.698242-1.696289-2.545898-3.736816-2.545898-6.280762
			c0-0.743164,0.07959-1.443848,0.239258-2.187012l2.385742-11.115234c0.741699-3.020508,2.424805-5.336914,5.050781-7.539063
			C302.444824,52.807617,305.268066,52,308.291504,52H341.694336z"/>
		<path fill="#0099CC" d="M106.563965,59.818359c-1.67041-1.644531-2.505859-3.623047-2.505859-6.221191
			c0-0.743652,0.07959-1.441406,0.239258-2.236816l2.385742-11.097656c0.688477-3.075684,2.345215-5.666992,4.970215-7.84082
			C112.973145,31.328613,114.349609,31,115.783203,30H91.666504h-1h-75v53h75h1h11.358887
			c-0.419922,0-0.820313-0.433594-1.193848-0.795898c-1.697754-1.641602-2.544922-4.003906-2.544922-6.550781
			c0-0.79541,0.07959-1.65332,0.238281-2.65332h44.538086l2.385742-11h-33.40332
			C110.393555,62,108.234375,61.461914,106.563965,59.818359z"/>
		<polygon fill="#0099CC" points="303.518066,73 336.921387,73 339.307617,62 305.904785,62 		"/>
	</g>
</g>
<g id="Layer_4">
	<g>
		<circle fill="#0099CC" cx="43.431885" cy="58.118164" r="36.204834"/>
		<g>
			<g>
				<defs>
					<rect id="SVGID_1_" x="3.784668" y="5" width="78.946289" height="92.267578"/>
				</defs>
				<clipPath id="SVGID_2_">
					<use xlink:href="#SVGID_1_"  overflow="visible"/>
				</clipPath>
				<g clip-path="url(#SVGID_2_)">
					<defs>
						<rect id="SVGID_3_" x="-4.712402" y="0.250488" width="256.710449" height="102.684082"/>
					</defs>
					<clipPath id="SVGID_4_">
						<use xlink:href="#SVGID_3_"  overflow="visible"/>
					</clipPath>
					<path clip-path="url(#SVGID_4_)" fill="#282828" d="M70.160645,28.922363l2.884277-3.437012
						c1.683105,0.419922,3.535156-0.11084,4.726563-1.529785c1.663574-1.98291,1.405762-4.94043-0.577637-6.604004
						c-1.983398-1.664063-4.939453-1.405273-6.604492,0.577637c-1.19043,1.419434-1.391113,3.334961-0.685059,4.92041
						l-2.880371,3.432129c-6.102539-4.609863-13.58252-7.490723-21.716309-7.907227v-4.476074
						c1.560059-0.761719,2.637695-2.358398,2.637695-4.211426C47.945313,7.098145,45.846191,5,43.257813,5
						s-4.6875,2.098145-4.6875,4.687012c0,1.853027,1.077637,3.449707,2.637695,4.210938v4.476563
						c-8.133789,0.416504-15.614258,3.297363-21.716797,7.907227l-2.879883-3.431641
						c0.706055-1.585449,0.505371-3.501953-0.685547-4.920898c-1.664551-1.98291-4.620605-2.241699-6.604004-0.577637
						c-1.983398,1.663574-2.241699,4.621094-0.577637,6.604004c1.191406,1.418457,3.04248,1.949219,4.725586,1.529785
						l2.884277,3.4375C8.624023,36.128906,3.784668,46.395508,3.784668,57.796875
						c0,21.797363,17.672363,39.470703,39.473145,39.470703c21.800293,0,39.473145-17.67334,39.473145-39.470703
						C82.730957,46.39502,77.890625,36.128906,70.160645,28.922363 M43.257813,93.348633
						c-19.635254,0-35.553711-15.918457-35.553711-35.551758c0-19.63623,15.918457-35.555176,35.553711-35.555176
						c19.63623,0,35.553711,15.918945,35.553711,35.555176C78.811523,77.430176,62.894043,93.348633,43.257813,93.348633"/>
					<path clip-path="url(#SVGID_4_)" fill="#282828" d="M74.70166,57.794434c0,17.366699-14.078125,31.444336-31.443848,31.444336
						c-17.366211,0-31.444336-14.077637-31.444336-31.444336c0-17.366211,14.078125-31.443359,31.444336-31.443359
						C60.623535,26.351074,74.70166,40.428223,74.70166,57.794434"/>
				</g>
				<g clip-path="url(#SVGID_2_)">
					<defs>
						<rect id="SVGID_5_" x="-4.712402" y="0.250488" width="256.710449" height="102.684082"/>
					</defs>
					<clipPath id="SVGID_6_">
						<use xlink:href="#SVGID_5_"  overflow="visible"/>
					</clipPath>
					<path clip-path="url(#SVGID_6_)" fill="#EF4024" d="M38.784668,45.87793c0.005371,0,0.009766-0.001465,0.015625-0.001465
						l23.816895-0.01123c0.10498-0.529785,0.157715-1.056641,0.157715-1.585449c0-1.693359-0.562012-3.085938-1.691406-4.176758
						c-1.127441-1.094238-2.572266-1.639648-4.334473-1.639648l-8.976563,0.011719h-8.023926h-2.737793
						c-2.044434,0-3.937988,0.722656-5.683594,2.168457c-1.746094,1.444824-2.84668,3.189941-3.304688,5.234375l-1.586426,7.401367
						c-0.105957,0.52832-0.159668,1.039063-0.159668,1.533691c0,1.727539,0.555664,3.136719,1.666504,4.229492
						c1.111328,1.092285,2.545898,1.637695,4.30957,1.637695H52.65918l-1.585449,7.40332h-27.8125
						c-0.10498,0.528809-0.157715,1.056152-0.157715,1.584961c0,1.692871,0.562012,3.085449,1.691406,4.176758
						c1.127441,1.09375,2.573242,1.63916,4.333984,1.63916h20.413086c2.042969,0,3.937012-0.712402,5.682129-2.140625
						c1.744141-1.427246,2.830078-3.181152,3.251465-5.260254l1.587402-7.40332
						c0.13916-0.562012,0.209473-1.109375,0.209473-1.637695c0-1.65625-0.563477-3.03125-1.690918-4.123535
						c-1.127441-1.092773-2.573242-1.639648-4.334961-1.639648h-20.40918l1.588379-7.401367H38.784668z"/>
				</g>
			</g>
		</g>
	</g>
	<g>
	</g>
	<g>
	</g>
	<g>
	</g>
	<g>
	</g>
	<g>
	</g>
	<g>
	</g>
	<g>
	</g>
	<g>
	</g>
	<g>
	</g>
	<g>
	</g>
	<g>
	</g>
	<g>
	</g>
	<g>
	</g>
	<g>
	</g>
	<g>
	</g>
</g>
</svg>
